<svg width="223" height="184" xmlns="http://www.w3.org/2000/svg" xmlns:xlink="http://www.w3.org/1999/xlink" xml:space="preserve" overflow="hidden"><g transform="translate(-1877 -1033)"><path d="M0 0 189.194 0.000360892" stroke="#6498E8" stroke-width="4.58333" stroke-miterlimit="8" stroke-dasharray="4.58333 4.58333" stroke-opacity="0.6" fill="none" fill-rule="evenodd" transform="matrix(-1 0 0 1 2085.69 1162.5)"/><path d="M0 0 140.099 0.000360892" stroke="#6498E8" stroke-width="4.58333" stroke-miterlimit="8" stroke-dasharray="4.58333 4.58333" stroke-opacity="0.6" fill="none" fill-rule="evenodd" transform="matrix(-1 0 0 1 2085.6 1103.5)"/><path d="M1899 1114 1899 1211.97" stroke="#6498E8" stroke-width="10.3125" stroke-miterlimit="8" fill="none" fill-rule="evenodd"/><path d="M1880.5 1162C1880.5 1152.33 1889.23 1144.5 1900 1144.5 1910.77 1144.5 1919.5 1152.33 1919.5 1162 1919.5 1171.66 1910.77 1179.5 1900 1179.5 1889.23 1179.5 1880.5 1171.66 1880.5 1162Z" stroke="#6498E8" stroke-width="6.875" stroke-miterlimit="8" fill="#FFFFFF" fill-rule="evenodd"/><path d="M1956 1055 1956 1152.97" stroke="#E5A836" stroke-width="10.3125" stroke-miterlimit="8" fill="none" fill-rule="evenodd"/><path d="M1937.5 1104.5C1937.5 1095.11 1946.01 1087.5 1956.5 1087.5 1966.99 1087.5 1975.5 1095.11 1975.5 1104.5 1975.5 1113.89 1966.99 1121.5 1956.5 1121.5 1946.01 1121.5 1937.5 1113.89 1937.5 1104.5Z" stroke="#E5A836" stroke-width="6.875" stroke-miterlimit="8" fill="#FFFFFF" fill-rule="evenodd"/><path d="M2038 1044 2038 1170.14" stroke="#999999" stroke-width="10.3125" stroke-miterlimit="8" fill="none" fill-rule="evenodd"/><path d="M2018.5 1117.5 2038 1087.5 2057.5 1117.5Z" stroke="#999999" stroke-width="6.875" stroke-miterlimit="8" fill="#999999" fill-rule="evenodd"/><path d="M0 0 0.193799 155.906" stroke="#6498E8" stroke-width="3.4375" stroke-miterlimit="8" fill="none" fill-rule="evenodd" transform="matrix(-1 0 0 1 2085.69 1033.5)"/><path d="M2085.5 1034.5 2097.2 1034.5" stroke="#6498E8" stroke-width="3.4375" stroke-miterlimit="8" fill="none" fill-rule="evenodd"/><path d="M2085.5 1060.5 2097.2 1060.5" stroke="#6498E8" stroke-width="3.4375" stroke-miterlimit="8" fill="none" fill-rule="evenodd"/><path d="M2085.5 1086.5 2097.2 1086.5" stroke="#6498E8" stroke-width="3.4375" stroke-miterlimit="8" fill="none" fill-rule="evenodd"/><path d="M2085.5 1113.5 2097.2 1113.5" stroke="#6498E8" stroke-width="3.4375" stroke-miterlimit="8" fill="none" fill-rule="evenodd"/><path d="M2085.5 1139.5 2097.2 1139.5" stroke="#6498E8" stroke-width="3.4375" stroke-miterlimit="8" fill="none" fill-rule="evenodd"/><path d="M2085.5 1163.5 2097.2 1163.5" stroke="#6498E8" stroke-width="3.4375" stroke-miterlimit="8" fill="none" fill-rule="evenodd"/><path d="M2086.5 1187.5 2098.2 1187.5" stroke="#6498E8" stroke-width="3.4375" stroke-miterlimit="8" fill="none" fill-rule="evenodd"/></g></svg>